<svg width="483" height="923" viewBox="0 0 483 923" fill="none" xmlns="http://www.w3.org/2000/svg">
<rect y="288.889" width="482.444" height="634.111" fill="#06332E"/>
<path d="M313.041 256.626H375.183H437.324L433.083 310.496H416.489L411.37 306.254L406.253 310.496H396.895H389.658H375.183H360.708H353.47H344.112L338.995 306.254L333.881 310.496H317.283L313.041 256.626Z" fill="#329F5B"/>
<path d="M313.041 256.626H437.324L437.112 259.171H313.254L313.041 256.626Z" fill="#8FD5A6" fill-opacity="0.75"/>
<path d="M317.018 307.103H337.978L333.892 310.496H317.283L317.018 307.103Z" fill="#0C8346" fill-opacity="0.5"/>
<path d="M433.347 307.103H412.398L416.494 310.496H433.082L433.347 307.103Z" fill="#0C8346" fill-opacity="0.5"/>
<g filter="url(#filter0_d_20_35)">
<path d="M338.916 306.891V305.059C338.916 303.032 339.087 301.008 339.427 299.01L341.557 286.514C341.916 284.408 342.462 282.338 343.188 280.329L351.217 258.11L364.79 229.691L369.285 221.565C369.954 220.357 370.304 218.998 370.304 217.617V217.617C370.304 214.605 368.644 211.838 365.987 210.421L352.56 203.26C351.67 202.786 350.864 202.169 350.174 201.434V201.434C347.006 198.062 346.822 192.866 349.743 189.278L354.26 183.728C357.568 179.664 362.529 177.305 367.769 177.305H376.455" stroke="#B1B1B1" stroke-width="4"/>
<path d="M411.237 306.678V304.638C411.237 302.755 411.089 300.874 410.795 299.013L408.759 286.145C408.446 284.169 407.969 282.222 407.333 280.324L399.839 257.978L387.263 229.605L383.094 221.485C382.476 220.281 382.153 218.947 382.153 217.595V217.595C382.153 214.546 383.783 211.729 386.427 210.21L398.464 203.293C399.374 202.769 400.192 202.098 400.882 201.306V201.306C403.824 197.932 403.998 192.956 401.3 189.384L397.404 184.226C394.111 179.867 388.964 177.305 383.501 177.305H376.454" stroke="#B1B1B1" stroke-width="4"/>
<path d="M366.7 226.297L369.457 221.419L369.882 220.359V220.359C370.444 218.954 370.784 217.469 370.89 215.959L370.977 214.713V213.605V213.605C370.977 209.968 368.972 206.626 365.763 204.915L355.995 199.705C355.244 199.304 354.563 198.784 353.98 198.163V198.163C351.306 195.316 351.15 190.929 353.616 187.899L357.43 183.213C360.223 179.782 364.412 177.79 368.837 177.79H376.17" stroke="#B1B1B1" stroke-width="4"/>
<path d="M384.728 224.601L383.75 222.557C382.849 220.673 382.16 218.696 381.694 216.66L381.197 214.485C381.054 213.861 380.982 213.223 380.982 212.583V212.583C380.982 209.529 382.614 206.709 385.262 205.187L394.754 199.733C395.523 199.291 396.212 198.724 396.795 198.056V198.056C399.28 195.206 399.427 191.005 397.148 187.989L393.859 183.634C391.078 179.954 386.733 177.79 382.12 177.79H376.17" stroke="#B1B1B1" stroke-width="4"/>
<path d="M377 257.111V0" stroke="#B1B1B1" stroke-width="5"/>
</g>
<path d="M36.2681 256.626H98.4097H160.551L156.31 310.496H139.716L134.597 306.254L129.48 310.496H120.122H112.885H98.4097H83.9347H76.6972H67.3389L62.2223 306.254L57.1078 310.496H40.5098L36.2681 256.626Z" fill="#329F5B"/>
<path d="M36.2681 256.626H160.551L160.339 259.171H36.4809L36.2681 256.626Z" fill="#78C793" fill-opacity="0.75"/>
<path d="M40.2446 307.103H61.2055L57.1193 310.496H40.51L40.2446 307.103Z" fill="#1F9150" fill-opacity="0.5"/>
<path d="M156.574 307.103H135.626L139.721 310.496H156.31L156.574 307.103Z" fill="#1F9150" fill-opacity="0.5"/>
<g filter="url(#filter1_dd_20_35)">
<path d="M62.1421 306.891V305.059C62.1421 303.032 62.3133 301.008 62.6539 299.01L64.7839 286.514C65.1428 284.408 65.6886 282.338 66.4146 280.329L74.4432 258.11L88.0168 229.691L92.5119 221.565C93.1803 220.357 93.531 218.998 93.531 217.617V217.617C93.531 214.605 91.871 211.838 89.2133 210.421L75.7865 203.26C74.8969 202.786 74.0911 202.169 73.4008 201.434V201.434C70.233 198.062 70.0486 192.866 72.9693 189.278L77.4868 183.728C80.7946 179.664 85.7561 177.305 90.9959 177.305H99.6816" stroke="#B1B1B1" stroke-width="4"/>
<path d="M134.464 306.678V304.638C134.464 302.755 134.316 300.874 134.022 299.013L131.986 286.145C131.673 284.169 131.196 282.222 130.56 280.324L123.066 257.978L110.49 229.605L106.321 221.485C105.703 220.281 105.38 218.947 105.38 217.595V217.595C105.38 214.546 107.01 211.729 109.654 210.21L121.691 203.293C122.601 202.769 123.419 202.098 124.109 201.306V201.306C127.051 197.932 127.225 192.956 124.527 189.384L120.631 184.226C117.338 179.867 112.191 177.305 106.728 177.305H99.6815" stroke="#B1B1B1" stroke-width="4"/>
<path d="M89.9254 226.297L92.6825 221.419L93.1067 220.359V220.359C93.6688 218.954 94.0089 217.469 94.1147 215.959L94.2021 214.713V213.605V213.605C94.2021 209.968 92.1974 206.626 88.9879 204.915L79.2197 199.705C78.4686 199.304 77.7882 198.784 77.2054 198.163V198.163C74.5307 195.316 74.375 190.929 76.841 187.899L80.6553 183.213C83.4482 179.782 87.6374 177.79 92.0616 177.79H99.3953" stroke="#B1B1B1" stroke-width="4"/>
<path d="M107.953 224.601L106.975 222.557C106.075 220.673 105.385 218.696 104.919 216.66L104.422 214.485C104.279 213.861 104.207 213.223 104.207 212.583V212.583C104.207 209.529 105.84 206.709 108.487 205.187L117.979 199.733C118.748 199.291 119.438 198.724 120.02 198.056V198.056C122.505 195.206 122.652 191.005 120.373 187.989L117.084 183.634C114.303 179.954 109.958 177.79 105.345 177.79H99.3954" stroke="#B1B1B1" stroke-width="4"/>
<path d="M99.667 257.111V0" stroke="#B1B1B1" stroke-width="5"/>
</g>
<defs>
<filter id="filter0_d_20_35" x="332.916" y="0" width="84.3213" height="314.891" filterUnits="userSpaceOnUse" color-interpolation-filters="sRGB">
<feFlood flood-opacity="0" result="BackgroundImageFix"/>
<feColorMatrix in="SourceAlpha" type="matrix" values="0 0 0 0 0 0 0 0 0 0 0 0 0 0 0 0 0 0 127 0" result="hardAlpha"/>
<feOffset dy="4"/>
<feGaussianBlur stdDeviation="2"/>
<feComposite in2="hardAlpha" operator="out"/>
<feColorMatrix type="matrix" values="0 0 0 0 0 0 0 0 0 0 0 0 0 0 0 0 0 0 0.25 0"/>
<feBlend mode="normal" in2="BackgroundImageFix" result="effect1_dropShadow_20_35"/>
<feBlend mode="normal" in="SourceGraphic" in2="effect1_dropShadow_20_35" result="shape"/>
</filter>
<filter id="filter1_dd_20_35" x="56.1421" y="0" width="84.3218" height="314.891" filterUnits="userSpaceOnUse" color-interpolation-filters="sRGB">
<feFlood flood-opacity="0" result="BackgroundImageFix"/>
<feColorMatrix in="SourceAlpha" type="matrix" values="0 0 0 0 0 0 0 0 0 0 0 0 0 0 0 0 0 0 127 0" result="hardAlpha"/>
<feOffset dy="4"/>
<feGaussianBlur stdDeviation="2"/>
<feComposite in2="hardAlpha" operator="out"/>
<feColorMatrix type="matrix" values="0 0 0 0 0 0 0 0 0 0 0 0 0 0 0 0 0 0 0.25 0"/>
<feBlend mode="normal" in2="BackgroundImageFix" result="effect1_dropShadow_20_35"/>
<feColorMatrix in="SourceAlpha" type="matrix" values="0 0 0 0 0 0 0 0 0 0 0 0 0 0 0 0 0 0 127 0" result="hardAlpha"/>
<feOffset dy="4"/>
<feGaussianBlur stdDeviation="2"/>
<feComposite in2="hardAlpha" operator="out"/>
<feColorMatrix type="matrix" values="0 0 0 0 0 0 0 0 0 0 0 0 0 0 0 0 0 0 0.25 0"/>
<feBlend mode="normal" in2="effect1_dropShadow_20_35" result="effect2_dropShadow_20_35"/>
<feBlend mode="normal" in="SourceGraphic" in2="effect2_dropShadow_20_35" result="shape"/>
</filter>
</defs>
</svg>
